<svg width="1204" height="1080" viewBox="0 0 1204 1080" fill="none" xmlns="http://www.w3.org/2000/svg">
<path d="M1027.82 345.078H870.347C849.4 345.078 831.954 336.422 825.017 315.555L708.222 -31.4087C685.591 -100.855 610.691 -152.923 530.538 -152.923H-332.759C-398.296 -154.601 -461.543 -128.768 -507.008 -81.7321L-902.52 312.267C-948.928 357.558 -974.725 419.758 -973.984 484.508V786.449C-973.984 887.096 -899.018 965.265 -796.233 965.265H-701.935C-672.568 1136.97 -523.039 1262.44 -348.183 1262.11C-109.475 1262.11 7.2522 1091.95 115.291 942.72C221.578 796.849 308.736 668.423 482.985 668.423C622.411 668.423 730.449 777.793 730.449 907.963C730.449 1038.13 617.157 1149.52 489.99 1149.52L489.788 1148.78C379.998 1148.78 299.845 1098.45 217.94 985.596C216.526 982.71 213.024 981.502 210.06 982.979C208.915 983.515 207.972 984.455 207.433 985.596L148.227 1067.19C145.196 1070.47 144.523 1075.31 146.476 1079.33C224.878 1186.69 338.17 1261.64 489.99 1261.64C657.234 1261.64 814.105 1131.4 841.923 964.795H1027.82C1125.42 964.795 1203.82 883.204 1203.82 785.979V525.639C1203.82 428.414 1125.42 345.078 1027.82 345.078ZM1026.48 852.406H841.721C813.903 684.057 660.534 555.564 482.783 555.564C244.075 555.564 127.28 723.98 22.744 875.018C-80.0406 1023.98 -174.137 1148.78 -348.386 1148.78C-489.832 1148.78 -590.866 1037.66 -590.866 907.225C-590.866 776.786 -475.89 667.685 -355.66 667.685C-245.87 667.685 -162.215 712.842 -80.3102 825.634C-78.8957 828.519 -75.4605 829.727 -72.5642 828.318C-71.4192 827.781 -70.4089 826.842 -69.8701 825.634L-10.5971 749.276C-7.16193 744.043 -5.41071 742.567 -8.91321 737.132C-85.5639 629.775 -204.244 554.826 -355.66 554.826C-526.406 554.826 -674.521 690.23 -702.407 851.668H-797.984C-832.807 851.668 -860.692 823.889 -860.692 785.711V484.508C-861.164 448.879 -846.48 414.793 -820.279 390.571L-428.404 -0.140976C-395.332 -33.1532 -372.633 -40.3998 -332.624 -40.3998H530.538C565.361 -40.3998 589.744 -23.0885 600.184 6.56883L715.227 346.823C736.714 413.786 799.624 458.876 870.145 457.937H1024.12C1059.21 456.528 1088.85 483.77 1090.26 518.728C1090.33 519.868 1090.33 521.009 1090.33 522.15L1090.53 786.449C1091.14 822.279 1062.45 851.802 1026.48 852.406Z" fill="url(#paint0_linear_2013_10)"/>
<defs>
<linearGradient id="paint0_linear_2013_10" x1="536.5" y1="153" x2="633.5" y2="948.5" gradientUnits="userSpaceOnUse">
<stop stop-color="#59F89C"/>
<stop offset="1" stop-color="#59F89C" stop-opacity="0"/>
</linearGradient>
</defs>
</svg>
